<?xml version="1.0" standalone="no"?>
<!DOCTYPE svg PUBLIC "-//W3C//DTD SVG 20010904//EN"
 "http://www.w3.org/TR/2001/REC-SVG-20010904/DTD/svg10.dtd">
<svg version="1.0" xmlns="http://www.w3.org/2000/svg"
 width="4096.000000pt" height="1714.000000pt" viewBox="0 0 4096.000000 1714.000000"
 preserveAspectRatio="xMidYMid meet">

<g transform="translate(0.000000,1714.000000) scale(0.100000,-0.100000)"
fill="#000000" stroke="none">
<path d="M10810 12359 c-542 -32 -1062 -219 -1475 -529 -122 -92 -341 -303
-440 -425 -217 -267 -403 -629 -504 -980 -98 -341 -135 -632 -135 -1055 1
-297 14 -462 55 -693 162 -906 662 -1648 1344 -1994 272 -137 520 -210 885
-260 194 -26 761 -26 935 0 338 51 599 139 878 296 584 328 1011 960 1044
1546 9 167 -31 288 -131 393 -123 130 -266 182 -448 162 -228 -26 -330 -138
-473 -525 -235 -634 -704 -965 -1365 -966 -91 0 -199 5 -240 11 -495 70 -855
335 -1074 790 -97 202 -163 437 -202 720 -21 161 -30 618 -15 806 46 558 193
968 463 1289 297 353 734 526 1230 485 365 -30 601 -141 851 -399 115 -119
227 -281 352 -506 86 -154 182 -285 244 -331 131 -96 370 -111 523 -33 57 29
144 112 190 183 124 191 101 480 -63 808 -151 300 -396 567 -709 773 -410 269
-820 402 -1340 435 -179 11 -193 11 -380 -1z"/>
<path d="M16700 12360 c-122 -20 -201 -62 -287 -153 -43 -47 -69 -86 -91 -139
-66 -157 -62 -3 -62 -2683 0 -2649 -3 -2524 55 -2668 51 -126 162 -240 283
-289 50 -20 73 -23 197 -23 122 1 147 4 197 24 176 69 295 231 328 441 8 55
10 722 8 2555 -3 2348 -4 2483 -21 2540 -30 101 -71 178 -130 241 -61 66 -156
123 -237 142 -68 16 -179 22 -240 12z"/>
<path d="M37200 12360 c-185 -26 -331 -168 -384 -375 -32 -125 -36 -241 -36
-1054 l0 -813 -119 114 c-226 218 -430 352 -657 431 -201 70 -455 104 -704 94
-462 -19 -831 -172 -1129 -467 -308 -306 -489 -707 -556 -1231 -23 -175 -30
-512 -16 -692 51 -631 262 -1141 620 -1498 237 -235 497 -375 831 -446 133
-28 527 -25 666 5 360 78 633 240 945 559 l116 118 6 -120 c11 -208 55 -332
156 -438 100 -106 201 -147 356 -147 247 0 412 134 482 390 17 62 18 198 18
2585 0 2401 -1 2524 -18 2598 -66 282 -282 427 -577 387z m-1332 -2416 c186
-38 352 -133 493 -282 143 -151 243 -338 299 -557 50 -195 55 -242 55 -530 -1
-238 -3 -284 -23 -390 -93 -488 -344 -806 -729 -921 -119 -36 -329 -45 -453
-20 -187 38 -332 118 -475 261 -181 182 -287 408 -340 725 -22 125 -30 446
-16 583 63 623 358 1031 816 1132 85 19 279 18 373 -1z"/>
<path d="M4763 12306 c-153 -35 -304 -153 -368 -287 -101 -213 -46 -492 123
-624 109 -86 225 -125 371 -125 235 0 431 130 501 336 45 128 36 315 -21 434
-52 110 -179 213 -316 256 -70 22 -216 27 -290 10z"/>
<path d="M4790 10760 c-179 -28 -330 -147 -390 -308 -57 -151 -54 -8 -60
-2247 -5 -1916 -7 -2066 -23 -2148 -27 -134 -53 -194 -107 -248 -73 -73 -122
-84 -330 -73 -91 4 -217 9 -280 9 -104 0 -120 -3 -172 -27 -125 -59 -210 -177
-231 -323 -34 -233 93 -414 354 -507 295 -104 793 -116 1094 -27 240 71 430
209 561 404 100 151 144 273 174 474 38 262 41 484 38 2561 l-3 1995 -22 77
c-12 42 -34 100 -49 129 -32 64 -123 162 -182 196 -94 56 -252 82 -372 63z"/>
<path d="M22001 10760 c-334 -28 -597 -101 -871 -241 -167 -86 -293 -175 -425
-301 -178 -169 -285 -317 -395 -543 -110 -225 -168 -418 -212 -700 -28 -186
-31 -565 -5 -755 106 -761 497 -1321 1134 -1622 290 -137 593 -198 978 -198
316 0 555 36 802 121 724 250 1192 838 1318 1659 36 229 30 619 -11 870 -142
855 -700 1457 -1534 1655 -212 50 -551 74 -779 55z m480 -823 c168 -44 309
-128 435 -258 168 -176 272 -398 326 -699 26 -146 36 -488 19 -650 -64 -610
-365 -1015 -826 -1111 -173 -36 -411 -24 -567 30 -369 127 -620 486 -693 993
-48 329 -21 707 70 983 136 415 405 664 794 736 25 4 114 6 196 4 120 -2 169
-8 246 -28z"/>
<path d="M27488 10760 c-214 -38 -347 -164 -411 -388 -22 -77 -22 -80 -25
-1272 -2 -814 0 -1243 8 -1345 28 -376 112 -650 259 -846 69 -91 197 -210 294
-273 316 -205 673 -272 1127 -210 288 39 534 147 770 338 88 71 236 219 306
305 l49 61 2 -48 c16 -308 59 -440 181 -554 98 -92 193 -128 338 -128 202 0
347 90 430 265 68 144 65 44 62 1940 -3 1901 2 1746 -70 1895 -104 213 -363
315 -618 244 -178 -50 -296 -178 -353 -383 -20 -74 -21 -97 -28 -1071 -6 -993
-10 -1087 -45 -1299 -19 -113 -43 -184 -89 -268 -182 -323 -557 -522 -913
-482 -175 19 -285 71 -390 184 -118 125 -172 258 -219 533 -14 84 -17 241 -23
1202 -6 1004 -8 1112 -24 1180 -62 262 -230 408 -488 424 -45 3 -104 1 -130
-4z"/>
</g>
</svg>
